<?xml version="1.0" encoding="UTF-8"?>
<svg id="Layer_2" data-name="Layer 2" xmlns="http://www.w3.org/2000/svg" viewBox="0 0 685.71 596.43">
  <defs>
    <style>
      .cls-1 {
        fill: #212121;
      }
    </style>
  </defs>
  <g id="Layer_1-2" data-name="Layer 1">
    <path class="cls-1" d="M414.29,35.79c0-31.27-37.34-47.44-60.14-26.05L213.09,142c-9.27,8.69-21.5,13.53-34.2,13.53H92.86C41.57,155.53,0,197.1,0,248.39v99.77c0,51.28,41.57,92.86,92.86,92.86h86.05c12.7,0,24.92,4.83,34.19,13.51l141.06,132.17c22.81,21.38,60.13,5.2,60.13-26.06V35.79ZM242.41,173.26L371.43,52.28v491.89l-129.03-120.91c-17.21-16.12-39.91-25.1-63.49-25.1H92.86c-27.61,0-50-22.39-50-50v-99.77c0-27.61,22.39-50,50-50h86.03c23.6,0,46.31-8.98,63.52-25.12Z"/>
    <path class="cls-1" d="M591.49,48.3c-7.82-8.89-21.36-9.75-30.24-1.94-8.89,7.82-9.75,21.36-1.94,30.24,52.02,59.14,83.55,136.68,83.55,221.63s-31.53,162.49-83.55,221.63c-7.82,8.89-6.95,22.43,1.94,30.24,8.89,7.82,22.43,6.95,30.24-1.94,58.64-66.66,94.23-154.17,94.23-249.93s-35.59-183.27-94.23-249.94Z"/>
    <path class="cls-1" d="M524.37,135.46c-7.1-9.47-20.53-11.38-30-4.28-9.47,7.1-11.38,20.54-4.28,30,28.66,38.19,45.63,85.61,45.63,137.05s-16.97,98.86-45.63,137.05c-7.1,9.47-5.19,22.9,4.28,30,9.47,7.1,22.9,5.19,30-4.28,34.03-45.35,54.21-101.74,54.21-162.77s-20.17-117.43-54.21-162.78Z"/>
  </g>
</svg>